<svg width="32" height="32" viewBox="0 0 32 32" fill="none" xmlns="http://www.w3.org/2000/svg">
  <defs>
    <!-- Gradient definition matching the vibrant design -->
    <radialGradient id="buzzhubGradient" cx="50%" cy="40%" r="70%">
      <stop offset="0%" style="stop-color:#8B5CF6;stop-opacity:1" />
      <stop offset="30%" style="stop-color:#06B6D4;stop-opacity:1" />
      <stop offset="70%" style="stop-color:#EC4899;stop-opacity:1" />
      <stop offset="100%" style="stop-color:#F43F5E;stop-opacity:1" />
    </radialGradient>
    
    <!-- Additional gradient for depth -->
    <linearGradient id="buzzhubLinear" x1="0%" y1="0%" x2="100%" y2="100%">
      <stop offset="0%" style="stop-color:#A855F7;stop-opacity:0.8" />
      <stop offset="50%" style="stop-color:#06B6D4;stop-opacity:0.9" />
      <stop offset="100%" style="stop-color:#EC4899;stop-opacity:1" />
    </linearGradient>
  </defs>
  
  <!-- Rounded square background with gradient -->
  <rect x="2" y="2" width="28" height="28" rx="8" ry="8" fill="url(#buzzhubGradient)" />
  
  <!-- Overlay gradient for depth -->
  <rect x="2" y="2" width="28" height="28" rx="8" ry="8" fill="url(#buzzhubLinear)" opacity="0.6" />
  
  <!-- Subtle highlight -->
  <rect x="4" y="4" width="24" height="24" rx="6" ry="6" fill="white" opacity="0.1" />
  
  <!-- Modern "B" letter with gradient -->
  <path d="M8 6 L8 26 L18 26 C21.5 26 24 23.5 24 20 C24 18.5 23.5 17 22.5 16 C23.5 15 24 13.5 24 12 C24 8.5 21.5 6 18 6 L8 6 Z M12 10 L18 10 C19.5 10 20.5 11 20.5 12.5 C20.5 14 19.5 15 18 15 L12 15 L12 10 Z M12 17 L18 17 C19.5 17 20.5 18 20.5 19.5 C20.5 21 19.5 22 18 22 L12 22 L12 17 Z" fill="white" opacity="0.9"/>
</svg>
